<svg id="Layer_1" data-name="Layer 1" xmlns="http://www.w3.org/2000/svg" viewBox="0 0 255.8 38.29"><defs><style>.cls-1{fill:#1a1353;}.cls-2{fill:#00aecf;}.cls-3{fill:#66c4ab;}</style></defs><path class="cls-1" d="M82.22,23.2q.38-5.39-3.26-5.39a3.6,3.6,0,0,0-2.85,1.34,9.43,9.43,0,0,0-1.55,4.36h7.66Zm6.17,4.49H74.16c.06,2,.5,3.38,1.3,4.15a4.67,4.67,0,0,0,3.47,1.21,8.19,8.19,0,0,0,2.73-.5A13.89,13.89,0,0,0,84.6,31l2.48,3.9a15.14,15.14,0,0,1-9.23,3.28c-3.72,0-6.48-1.12-8.28-3.38s-2.54-5.26-2.2-9a16.66,16.66,0,0,1,1.8-6.44,12,12,0,0,1,4.06-4.52,11,11,0,0,1,6-1.67c3.32,0,5.83,1,7.5,3.19s2.39,5.08,2,8.85A14.29,14.29,0,0,1,88.39,27.69Z" transform="translate(0 -0.07)"/><polygon class="cls-1" points="36.6 37.31 39.23 6.66 57.09 6.66 55.91 11.83 45.9 11.83 45.18 19.97 53.92 19.97 53.49 25.14 44.75 25.14 43.7 37.31 36.6 37.31"/><polygon class="cls-1" points="65.27 13.84 63.25 37.31 56.43 37.31 58.45 13.84 65.27 13.84"/><path class="cls-1" d="M65.24,5.3A3.2,3.2,0,0,1,66,7.87a3.75,3.75,0,0,1-1.27,2.57,3.87,3.87,0,0,1-2.73,1,3.18,3.18,0,0,1-3.34-3.6,3.87,3.87,0,0,1,3.93-3.59A3.54,3.54,0,0,1,65.24,5.3Z" transform="translate(0 -0.07)"/><path class="cls-1" d="M92.45,36.39a6.37,6.37,0,0,1-1.24-5l2-24.06,7.16-2.73L98.06,31.13c-.1,1,.27,1.46,1,1.46a3.05,3.05,0,0,0,1.15-.22l.93,5a11,11,0,0,1-4.22.81A5.52,5.52,0,0,1,92.45,36.39Z" transform="translate(0 -0.07)"/><path class="cls-1" d="M117.42,30.36l.87-10.13a5.48,5.48,0,0,0-1.55-1.52,3.68,3.68,0,0,0-1.89-.49A3.85,3.85,0,0,0,111.66,20a11.39,11.39,0,0,0-1.61,5.58c-.25,2.75-.06,4.67.49,5.76A2.79,2.79,0,0,0,113.21,33c1.61,0,3-.9,4.21-2.66ZM126.78.07l-3.1,37.32h-6l-.12-2.76a8.37,8.37,0,0,1-6.82,3.5,6.65,6.65,0,0,1-6.23-3.38c-1.3-2.23-1.77-5.29-1.43-9.19a17.68,17.68,0,0,1,1.71-6.41,11.37,11.37,0,0,1,3.69-4.43,8.43,8.43,0,0,1,5-1.58,6.79,6.79,0,0,1,5.27,2.2l1-12.61Z" transform="translate(0 -0.07)"/><path class="cls-2" d="M255.8,16.11h-.5l-.06-1.45v-.38a1.84,1.84,0,0,1,0-.4h0l-.58,2h-.44l-.65-1.95h0c0,.16,0,.31,0,.5v.28l-.06,1.45h-.47l.1-2.69h.71l.62,1.89.56-1.89h.71Zm-2.94-2.69-.1.43H252v2.26h-.53V13.85h-.84v-.43Z" transform="translate(0 -0.07)"/><path class="cls-2" d="M246.19,14.07a11.73,11.73,0,0,1,3.38,2l-1.89,2.57a12.4,12.4,0,0,0-2.82-1.52,8.47,8.47,0,0,0-2.91-.49,5.56,5.56,0,0,0-3.13.8,2.89,2.89,0,0,0-1.3,2.23,2.35,2.35,0,0,0,.86,2.2,11,11,0,0,0,3.69,1.55,12.35,12.35,0,0,1,5.46,2.66A5.51,5.51,0,0,1,249,30.67,6.63,6.63,0,0,1,246,35.93a11.71,11.71,0,0,1-6.54,1.83,11.42,11.42,0,0,1-8.34-3.07l2.32-2.48a9.34,9.34,0,0,0,6.2,2.26,6.3,6.3,0,0,0,3.66-1,3.32,3.32,0,0,0,1.55-2.6,3.43,3.43,0,0,0-.31-1.92A3.18,3.18,0,0,0,243,27.72a21.43,21.43,0,0,0-3.32-1.17,10.63,10.63,0,0,1-5-2.6,5.32,5.32,0,0,1-1.27-4.15,6,6,0,0,1,1.34-3.29,7.63,7.63,0,0,1,3.13-2.29,10.66,10.66,0,0,1,4.27-.8A11.53,11.53,0,0,1,246.19,14.07Z" transform="translate(0 -0.07)"/><path class="cls-2" d="M226.08,23.85a8.23,8.23,0,0,0-.9-5.26,4.3,4.3,0,0,0-3.87-1.83q-4.89,0-5.95,7.34h10.69Zm3.56,3.29H215.11c-.06,2.57.43,4.45,1.42,5.66a5,5,0,0,0,4.1,1.83,9.35,9.35,0,0,0,3.06-.5,13.18,13.18,0,0,0,3-1.54L228.25,35A13.44,13.44,0,0,1,220,37.94c-3.16,0-5.55-1-7.13-3.19s-2.23-5-1.92-8.76a17.78,17.78,0,0,1,1.7-6.44,11.54,11.54,0,0,1,3.66-4.4,8.9,8.9,0,0,1,5.17-1.58q4.56,0,6.7,3.07c1.42,2,2,4.86,1.7,8.45C229.83,25.74,229.77,26.42,229.64,27.14Z" transform="translate(0 -0.07)"/><path class="cls-2" d="M209.81,36.33a9,9,0,0,1-5.24,1.58,5.47,5.47,0,0,1-4.37-1.7A6.46,6.46,0,0,1,199,31.28l1.21-14h-4l.27-3.13h4L201.1,7l4.12-1.55-.74,8.67h5.39l-.71,3.13h-5L203,31.13a4.19,4.19,0,0,0,.41,2.63,2.23,2.23,0,0,0,2,.81,6.83,6.83,0,0,0,3.1-.93Z" transform="translate(0 -0.07)"/><path class="cls-2" d="M191.62,37.39h-3.41V33.76A9.84,9.84,0,0,1,185,36.92a8.59,8.59,0,0,1-4.18,1,5.53,5.53,0,0,1-4.52-1.86A7,7,0,0,1,175,30.79l1.42-16.72h4L179,30.36a5.17,5.17,0,0,0,.53,3.37,3.09,3.09,0,0,0,2.6,1c2.24,0,4.25-1.33,6.05-4l1.42-16.63h4Z" transform="translate(0 -0.07)"/><path class="cls-2" d="M156.5,25.74q-.74,8.88,5.12,8.89c3.93,0,6.13-3,6.63-9s-1.18-8.89-5.08-8.89S157,19.8,156.5,25.74Zm14.17-8.92c1.58,2.17,2.23,5.14,1.89,8.89a16.48,16.48,0,0,1-1.77,6.38,10.34,10.34,0,0,1-9.45,5.82c-3.19,0-5.61-1.08-7.19-3.28s-2.23-5.14-1.92-8.89A16.3,16.3,0,0,1,154,19.36a10.3,10.3,0,0,1,9.49-5.82C166.67,13.54,169.06,14.62,170.67,16.82Z" transform="translate(0 -0.07)"/><path class="cls-2" d="M139.27,21.25a8,8,0,0,0,5-1.36,5.86,5.86,0,0,0,2-4.37c.15-1.89-.28-3.25-1.3-4.09s-2.79-1.26-5.24-1.26h-3.69l-.93,11.08Zm.19,3.22h-4.62l-1.11,12.92H129.6l2.61-30.48h7.84q5.58,0,8.27,2.17c1.8,1.46,2.58,3.59,2.33,6.47a8.72,8.72,0,0,1-2.05,5.18,10.87,10.87,0,0,1-5.11,3l6.88,13.69h-4.9Z" transform="translate(0 -0.07)"/><path class="cls-3" d="M26.56,8.15l4,11.49a59.46,59.46,0,0,0,.77-17.46A53.24,53.24,0,0,0,15,6Z" transform="translate(0 -0.07)"/><path class="cls-2" d="M23.24,10.23,11,8a30.79,30.79,0,0,0-3.66,2.41l3.91,14.68Z" transform="translate(0 -0.07)"/><path class="cls-2" d="M27.77,28.25a29.69,29.69,0,0,0,1.64-4.18L25.16,11.93l-3.19,4h0L13.2,26.79Z" transform="translate(0 -0.07)"/><path class="cls-1" d="M9.3,27.54,5.24,12.24a20.9,20.9,0,0,0-2.11,2.29A15.23,15.23,0,0,0,4,34.1Z" transform="translate(0 -0.07)"/><path class="cls-1" d="M11.22,29.24,6,35.81a13.83,13.83,0,0,0,18.66-2.48,27.7,27.7,0,0,0,1.79-2.54Z" transform="translate(0 -0.07)"/></svg>